<svg width="38" height="38" viewBox="0 0 38 38" fill="none" xmlns="http://www.w3.org/2000/svg">
<g filter="url(#filter0_d)">
<path d="M19 0C10.72 0 4 6.72 4 15C4 23.28 10.72 30 19 30C27.28 30 34 23.28 34 15C34 6.72 27.28 0 19 0ZM19 4.5C21.49 4.5 23.5 6.51 23.5 9C23.5 11.49 21.49 13.5 19 13.5C16.51 13.5 14.5 11.49 14.5 9C14.5 6.51 16.51 4.5 19 4.5ZM19 25.8C15.25 25.8 11.935 23.88 10 20.97C10.045 17.985 16 16.35 19 16.35C21.985 16.35 27.955 17.985 28 20.97C26.065 23.88 22.75 25.8 19 25.8Z" fill="#EBF7FC"/>
</g>
<defs>
<filter id="filter0_d" x="0" y="0" width="38" height="38" filterUnits="userSpaceOnUse" color-interpolation-filters="sRGB">
<feFlood flood-opacity="0" result="BackgroundImageFix"/>
<feColorMatrix in="SourceAlpha" type="matrix" values="0 0 0 0 0 0 0 0 0 0 0 0 0 0 0 0 0 0 127 0"/>
<feOffset dy="4"/>
<feGaussianBlur stdDeviation="2"/>
<feColorMatrix type="matrix" values="0 0 0 0 0 0 0 0 0 0 0 0 0 0 0 0 0 0 0.25 0"/>
<feBlend mode="normal" in2="BackgroundImageFix" result="effect1_dropShadow"/>
<feBlend mode="normal" in="SourceGraphic" in2="effect1_dropShadow" result="shape"/>
</filter>
</defs>
</svg>
