<svg width="43" height="43" viewBox="0 0 43 43" fill="none" xmlns="http://www.w3.org/2000/svg">
<g filter="url(#filter0_d)">
<path d="M35.1111 3.5H26.9833C26.1667 1.47 24.0278 0 21.5 0C18.9722 0 16.8333 1.47 16.0167 3.5H7.88889C5.75 3.5 4 5.075 4 7V31.5C4 33.425 5.75 35 7.88889 35H35.1111C37.25 35 39 33.425 39 31.5V7C39 5.075 37.25 3.5 35.1111 3.5ZM21.5 3.5C22.5694 3.5 23.4444 4.2875 23.4444 5.25C23.4444 6.2125 22.5694 7 21.5 7C20.4306 7 19.5556 6.2125 19.5556 5.25C19.5556 4.2875 20.4306 3.5 21.5 3.5ZM25.3889 28H11.7778V24.5H25.3889V28ZM31.2222 21H11.7778V17.5H31.2222V21ZM31.2222 14H11.7778V10.5H31.2222V14Z" fill="#9895CE"/>
</g>
<defs>
<filter id="filter0_d" x="0" y="0" width="43" height="43" filterUnits="userSpaceOnUse" color-interpolation-filters="sRGB">
<feFlood flood-opacity="0" result="BackgroundImageFix"/>
<feColorMatrix in="SourceAlpha" type="matrix" values="0 0 0 0 0 0 0 0 0 0 0 0 0 0 0 0 0 0 127 0"/>
<feOffset dy="4"/>
<feGaussianBlur stdDeviation="2"/>
<feColorMatrix type="matrix" values="0 0 0 0 0 0 0 0 0 0 0 0 0 0 0 0 0 0 0.25 0"/>
<feBlend mode="normal" in2="BackgroundImageFix" result="effect1_dropShadow"/>
<feBlend mode="normal" in="SourceGraphic" in2="effect1_dropShadow" result="shape"/>
</filter>
</defs>
</svg>
