<svg width="16" height="8" viewBox="0 0 16 8" fill="none" xmlns="http://www.w3.org/2000/svg">
<path d="M8.43335 2.66667C7.88669 1.11333 6.40669 0 4.66669 0C2.46002 0 0.666687 1.79333 0.666687 4C0.666687 6.20667 2.46002 8 4.66669 8C6.40669 8 7.88669 6.88667 8.43335 5.33333H11.3334V8H14V5.33333H15.3334V2.66667H8.43335ZM4.66669 5.33333C3.93335 5.33333 3.33335 4.73333 3.33335 4C3.33335 3.26667 3.93335 2.66667 4.66669 2.66667C5.40002 2.66667 6.00002 3.26667 6.00002 4C6.00002 4.73333 5.40002 5.33333 4.66669 5.33333Z" fill="#219653"/>
</svg>
